<svg width="20" height="20" viewBox="0 0 20 20" fill="none" xmlns="http://www.w3.org/2000/svg">
<path fill-rule="evenodd" clip-rule="evenodd" d="M6.1 19.212C7.31667 19.7373 8.61667 20 10 20C11.3833 20 12.6833 19.7373 13.9 19.212C15.1167 18.6873 16.175 17.975 17.075 17.075C17.975 16.175 18.6873 15.1167 19.212 13.9C19.7373 12.6833 20 11.3833 20 10C20 8.61667 19.7373 7.31667 19.212 6.1C18.6873 4.88333 17.975 3.825 17.075 2.925C16.175 2.025 15.1167 1.31233 13.9 0.787C12.6833 0.262333 11.3833 0 10 0C8.61667 0 7.31667 0.262333 6.1 0.787C4.88333 1.31233 3.825 2.025 2.925 2.925C2.025 3.825 1.31267 4.88333 0.788 6.1C0.262667 7.31667 0 8.61667 0 10C0 11.3833 0.262667 12.6833 0.788 13.9C1.31267 15.1167 2.025 16.175 2.925 17.075C3.825 17.975 4.88333 18.6873 6.1 19.212ZM15.663 15.663C14.1043 17.221 12.2167 18 10 18C7.78333 18 5.896 17.221 4.338 15.663C2.77933 14.1043 2 12.2167 2 10C2 7.78333 2.77933 5.89567 4.338 4.337C5.896 2.779 7.78333 2 10 2C12.2167 2 14.1043 2.779 15.663 4.337C17.221 5.89567 18 7.78333 18 10C18 12.2167 17.221 14.1043 15.663 15.663Z" fill="#37D200"/>
</svg>

